# xmcd
#
# Track frame offsets:
#	150
#	18759
#	36572
#	53389
#	69595
#	91098
#	104269
#	118421
#	132900
#	147980
#	162387
#	175749
#	191731
#
# Disc length: 2774 seconds
# Revision: 1
# Processed by: cddbd v1.5.2PL0 Copyright (c) Steve Scherf et al.
# Submitted via: dBpowerAMP V12.0
#
DISCID=b20ad40d
DTITLE=Dennis Agajanian - Acoustically Sound
DYEAR=2001
DGENRE=Gospel/Country
TTITLE0=Near The Cross
TTITLE1=Seven Hillsides
TTITLE2=Yo Se Christo Me Ama
TTITLE3=I Love To Tell The Story
TTITLE4=Finlandia (Be Still, My Soul)
TTITLE5=Victory In Jesus
TTITLE6=Hallelujah Chorus
TTITLE7=Tell John
TTITLE8=In The Desert
TTITLE9=My Jesus I Love Thee
TTITLE10=Come, Thou Fount Of Every Blessing
TTITLE11=He Leadeth Me
TTITLE12=Con Que Pagaremos
EXTD=
EXTT0=
EXTT1=
EXTT2=
EXTT3=
EXTT4=
EXTT5=
EXTT6=
EXTT7=
EXTT8=
EXTT9=
EXTT10=
EXTT11=
EXTT12=
PLAYORDER=
